<svg id="GRAPHICS" xmlns="http://www.w3.org/2000/svg" width="504.062" height="199.778" viewBox="0 0 504.062 199.778">
  <defs>
    <style>
      .cls-1 {
        fill: #05386b;
      }
    </style>
  </defs>
  <path id="receipt-solid" class="cls-1" d="M58.513.5,52.244,7.814,43.362.5a2.6,2.6,0,0,0-3.135,0L31.346,7.814,22.465.5A2.6,2.6,0,0,0,19.33.5L10.449,7.814,4.18.5A2.611,2.611,0,0,0,0,2.59V80.955a2.611,2.611,0,0,0,4.18,2.09l6.269-7.314,8.881,7.314a2.6,2.6,0,0,0,3.135,0l8.881-7.314,8.881,7.314a2.6,2.6,0,0,0,3.135,0l8.881-7.314,6.269,7.314a2.613,2.613,0,0,0,4.18-2.09V2.59A2.611,2.611,0,0,0,58.513.5ZM52.244,58.752a1.31,1.31,0,0,1-1.306,1.306H11.755a1.31,1.31,0,0,1-1.306-1.306V56.14a1.31,1.31,0,0,1,1.306-1.306H50.938a1.31,1.31,0,0,1,1.306,1.306Zm0-15.673a1.31,1.31,0,0,1-1.306,1.306H11.755a1.31,1.31,0,0,1-1.306-1.306V40.466a1.31,1.31,0,0,1,1.306-1.306H50.938a1.31,1.31,0,0,1,1.306,1.306Zm0-15.673a1.31,1.31,0,0,1-1.306,1.306H11.755a1.31,1.31,0,0,1-1.306-1.306V24.793a1.31,1.31,0,0,1,1.306-1.306H50.938a1.31,1.31,0,0,1,1.306,1.306Z" transform="translate(407.983 44.427) rotate(-30)"/>
  <path id="receipt-solid-2" data-name="receipt-solid" class="cls-1" d="M91.656.8l-9.82,11.457L67.924.8a4.066,4.066,0,0,0-4.91,0L49.1,12.255,35.189.8a4.066,4.066,0,0,0-4.91,0L16.367,12.255,6.547.8A4.09,4.09,0,0,0,0,4.072V126.825A4.09,4.09,0,0,0,6.547,130.1l9.82-11.457L30.279,130.1a4.066,4.066,0,0,0,4.91,0L49.1,118.642,63.013,130.1a4.066,4.066,0,0,0,4.91,0l13.912-11.457,9.82,11.457a4.093,4.093,0,0,0,6.547-3.273V4.072A4.09,4.09,0,0,0,91.656.8Zm-9.82,91.247a2.052,2.052,0,0,1-2.046,2.046H18.413a2.052,2.052,0,0,1-2.046-2.046V87.953a2.052,2.052,0,0,1,2.046-2.046H79.79a2.052,2.052,0,0,1,2.046,2.046Zm0-24.551A2.052,2.052,0,0,1,79.79,69.54H18.413a2.052,2.052,0,0,1-2.046-2.046V63.4a2.052,2.052,0,0,1,2.046-2.046H79.79A2.052,2.052,0,0,1,81.836,63.4Zm0-24.551A2.052,2.052,0,0,1,79.79,44.99H18.413a2.052,2.052,0,0,1-2.046-2.046V38.852a2.052,2.052,0,0,1,2.046-2.046H79.79a2.052,2.052,0,0,1,2.046,2.046Z" transform="translate(65.462 0.023) rotate(30)"/>
  <path id="receipt-solid-3" data-name="receipt-solid" class="cls-1" d="M79.158.686,70.676,10.58,58.661.686a3.512,3.512,0,0,0-4.241,0L42.406,10.58,30.391.686a3.512,3.512,0,0,0-4.241,0L14.135,10.58,5.654.686A3.532,3.532,0,0,0,0,3.513V109.527a3.532,3.532,0,0,0,5.654,2.827l8.481-9.895,12.015,9.895a3.512,3.512,0,0,0,4.241,0l12.015-9.895,12.015,9.895a3.512,3.512,0,0,0,4.241,0l12.015-9.895,8.481,9.895a3.535,3.535,0,0,0,5.654-2.827V3.513A3.532,3.532,0,0,0,79.158.686Zm-8.481,78.8a1.772,1.772,0,0,1-1.767,1.767H15.9a1.772,1.772,0,0,1-1.767-1.767V75.956A1.772,1.772,0,0,1,15.9,74.189H68.91a1.772,1.772,0,0,1,1.767,1.767Zm0-21.2a1.772,1.772,0,0,1-1.767,1.767H15.9a1.772,1.772,0,0,1-1.767-1.767V54.753A1.772,1.772,0,0,1,15.9,52.986H68.91a1.772,1.772,0,0,1,1.767,1.767Zm0-21.2a1.772,1.772,0,0,1-1.767,1.767H15.9a1.772,1.772,0,0,1-1.767-1.767V33.55A1.772,1.772,0,0,1,15.9,31.783H68.91a1.772,1.772,0,0,1,1.767,1.767Z" transform="matrix(0.966, 0.259, -0.259, 0.966, 347.743, 68.612)"/>
  <path id="cash-register-solid" class="cls-1" d="M125.849,93.328,119.27,53.908a7.886,7.886,0,0,0-7.786-6.578H51.171V31.561H74.824a3.954,3.954,0,0,0,3.942-3.942V3.942A3.954,3.954,0,0,0,74.824,0H11.751A3.954,3.954,0,0,0,7.809,3.942V27.594a3.954,3.954,0,0,0,3.942,3.942H35.4V47.3H14.486A7.905,7.905,0,0,0,6.7,53.883L.122,93.3A15.285,15.285,0,0,0-.1,95.891v22.371a7.876,7.876,0,0,0,7.884,7.884H118.162a7.876,7.876,0,0,0,7.884-7.884V95.915A13.081,13.081,0,0,0,125.849,93.328ZM68.911,61.1a3.954,3.954,0,0,1,3.942-3.942h3.942A3.954,3.954,0,0,1,80.737,61.1v3.942a3.954,3.954,0,0,1-3.942,3.942H72.853a3.954,3.954,0,0,1-3.942-3.942ZM61.027,76.87h3.942a3.954,3.954,0,0,1,3.942,3.942v3.942A3.954,3.954,0,0,1,64.969,88.7H61.027a3.954,3.954,0,0,1-3.942-3.942V80.812A3.954,3.954,0,0,1,61.027,76.87ZM53.142,57.16A3.954,3.954,0,0,1,57.084,61.1v3.942a3.954,3.954,0,0,1-3.942,3.942H49.2a3.954,3.954,0,0,1-3.942-3.942V61.1A3.954,3.954,0,0,1,49.2,57.16ZM19.635,19.71V11.826h47.3V19.71ZM29.49,68.986H25.548a3.954,3.954,0,0,1-3.942-3.942V61.1a3.954,3.954,0,0,1,3.942-3.942H29.49A3.954,3.954,0,0,1,33.432,61.1v3.942A3.954,3.954,0,0,1,29.49,68.986Zm3.942,15.768V80.812a3.954,3.954,0,0,1,3.942-3.942h3.942a3.954,3.954,0,0,1,3.942,3.942v3.942A3.954,3.954,0,0,1,41.316,88.7H37.374A3.954,3.954,0,0,1,33.432,84.754ZM86.65,112.349a1.977,1.977,0,0,1-1.971,1.971H41.316a1.977,1.977,0,0,1-1.971-1.971v-3.942a1.977,1.977,0,0,1,1.971-1.971H84.679a1.977,1.977,0,0,1,1.971,1.971Zm5.913-27.594A3.954,3.954,0,0,1,88.621,88.7H84.679a3.954,3.954,0,0,1-3.942-3.942V80.812a3.954,3.954,0,0,1,3.942-3.942h3.942a3.954,3.954,0,0,1,3.942,3.942Zm11.826-19.71a3.954,3.954,0,0,1-3.942,3.942H96.5a3.954,3.954,0,0,1-3.942-3.942V61.1A3.954,3.954,0,0,1,96.5,57.16h3.942a3.954,3.954,0,0,1,3.942,3.942Z" transform="translate(195.769 37.53)"/>
  <path id="receipt-solid-4" data-name="receipt-solid" class="cls-1" d="M54.823.467,48.949,7.32,40.628.467a2.432,2.432,0,0,0-2.937,0L29.369,7.32,21.048.467a2.432,2.432,0,0,0-2.937,0L9.79,7.32,3.916.467A2.446,2.446,0,0,0,0,2.425V75.848a2.446,2.446,0,0,0,3.916,1.958L9.79,70.953l8.321,6.853a2.432,2.432,0,0,0,2.937,0l8.321-6.853,8.321,6.853a2.432,2.432,0,0,0,2.937,0l8.321-6.853,5.874,6.853a2.448,2.448,0,0,0,3.916-1.958V2.425A2.446,2.446,0,0,0,54.823.467ZM48.949,55.045a1.227,1.227,0,0,1-1.224,1.224H11.014A1.227,1.227,0,0,1,9.79,55.045V52.6a1.227,1.227,0,0,1,1.224-1.224H47.725A1.227,1.227,0,0,1,48.949,52.6Zm0-14.685a1.227,1.227,0,0,1-1.224,1.224H11.014A1.227,1.227,0,0,1,9.79,40.36V37.913a1.227,1.227,0,0,1,1.224-1.224H47.725a1.227,1.227,0,0,1,1.224,1.224Zm0-14.685A1.227,1.227,0,0,1,47.725,26.9H11.014A1.227,1.227,0,0,1,9.79,25.675V23.228A1.227,1.227,0,0,1,11.014,22H47.725a1.227,1.227,0,0,1,1.224,1.224Z" transform="matrix(0.966, -0.259, 0.259, 0.966, 121.541, 104.364)"/>
</svg>
